<svg width="103" height="100" xmlns="http://www.w3.org/2000/svg"><g fill="#FFF"><path d="M27.965 58.594a31.101 31.101 0 0 0-5.502-1.089.903.903 0 0 0-1 .788.893.893 0 0 0 .806.98c3.371.355 5.032 1.06 5.435 1.06.39 0 .75-.248.868-.633a.886.886 0 0 0-.607-1.106zM19.084 57.5a33.11 33.11 0 0 0-8.42 1.216c-.489.136-.76.601-.607 1.037.124.354.49.58.885.58.501 0 3.338-1.104 8.173-1.178.513-.007.921-.384.913-.842-.009-.457-.434-.816-.944-.813zm8.886 6.841c-4-1.103-10.254-1.99-17.326.046-.474.137-.737.6-.589 1.035.149.433.653.677 1.129.54 6.636-1.91 12.509-1.077 16.268-.04.476.13.978-.117 1.12-.553.144-.436-.126-.896-.602-1.028zm0 7.084c-4-1.103-10.253-1.99-17.326.046-.474.136-.737.6-.589 1.034.149.433.653.677 1.129.54 6.636-1.91 12.51-1.076 16.268-.04.476.131.978-.116 1.12-.553.144-.436-.126-.896-.602-1.027zm0 5.666c-4-1.103-10.254-1.99-17.326.046-.474.137-.737.6-.589 1.035.121.352.476.578.859.578.54 0 7.349-2.612 16.538-.078.476.13.978-.117 1.12-.553.144-.436-.126-.896-.602-1.028zm0 7.084c-4-1.103-10.253-1.99-17.326.046-.474.136-.737.6-.589 1.034.149.433.653.677 1.129.54 6.636-1.91 12.51-1.076 16.268-.04.476.131.978-.116 1.12-.553.144-.436-.126-.896-.602-1.027zm23.015-6.211a17.846 17.846 0 0 0-1.454-.6c-.39-.142-.781.234-.873.839-.091.605.152 1.21.542 1.352 1.265.457 1.343.612 1.576.612.834 0 1.005-1.832.209-2.203zM45 76.076a29.558 29.558 0 0 0-11.487 1.058c-.459.137-.714.601-.57 1.037.117.353.46.579.83.579a.913.913 0 0 0 .262-.038 27.733 27.733 0 0 1 10.778-.993c.479.05.908-.28.96-.733.051-.454-.295-.861-.773-.91zm5.859 8.099c-4-1.103-10.254-1.99-17.326.046-.474.136-.738.6-.589 1.034.149.434.653.677 1.129.54 6.636-1.91 12.509-1.076 16.267-.04.476.131.978-.116 1.122-.553.143-.436-.127-.896-.603-1.027zm.001-25.458c-4.001-1.143-10.255-2.062-17.327.048a.86.86 0 0 0-.63.816v12.647c0 .272.136.528.367.69a.932.932 0 0 0 .802.126c6.637-1.98 12.51-1.116 16.269-.042a.938.938 0 0 0 .796-.132.842.842 0 0 0 .363-.686V59.536c0-.377-.26-.71-.64-.819zm-1.16 12.34c-3.753-.919-9.049-1.488-14.997.032V60.216c6.014-1.645 11.356-.988 14.997-.036v10.877z"/><path d="M59.425 54.568h-4.027c-.039-.2.218-1.217-.71-1.625-8.177-3.61-17.392-3.082-23.931-.1-6.494-2.962-15.7-3.533-23.93.1-.927.406-.674 1.434-.711 1.625H2.089C.938 54.568 0 55.489 0 56.62v36.933c0 1.131.938 2.051 2.089 2.051h27.763v3.506c0 .743.878 1.16 1.47.694l1.537-1.207C34.222 99.64 34.351 100 34.9 100a.897.897 0 0 0 .906-.89v-3.505h12.218c.5 0 .905-.397.905-.889a.898.898 0 0 0-.905-.889H35.805v-3.482c4.183-1.018 10.768-1.64 17.91 1.438.795.343 1.683-.233 1.683-1.08V56.345h4.027c.153 0 .279.123.279.274v36.933a.277.277 0 0 1-.279.273h-7.782c-.5 0-.905.398-.905.89 0 .491.405.888.905.888h7.782c1.151 0 2.089-.92 2.089-2.05V56.62c0-1.131-.938-2.052-2.089-2.052zM29.852 93.826H2.089a.276.276 0 0 1-.279-.273V56.62c0-.15.126-.274.279-.274h4.027v34.355c0 .847.885 1.424 1.683 1.081 7.457-3.214 15.834-2.806 22.053-.07v2.114zm0-4.048c-6.474-2.565-14.544-2.892-21.926.023V54.41c7.406-3.148 15.737-2.746 21.926-.015v35.384zm4.143 7.435l-.545-.446a.92.92 0 0 0-1.145-.012l-.643.506v-5.549a23.264 23.264 0 0 1 2.333-.864v6.365zM53.588 89.8c-7.315-2.889-15.358-2.627-21.926-.023V54.394c6.142-2.707 14.456-3.16 21.926.015v35.392z"/><path d="M47.913 60.947l-3.468-.602c-.471-.081-.914.26-.99.764-.077.504.243.979.714 1.06l1.85.321-3.508 3.237-.577-1.74c-.218-.655-1.015-.828-1.454-.31l-3.062 3.612a.97.97 0 0 0 .06 1.305c.353.343.9.314 1.22-.064l2.092-2.468.516 1.555c.203.609.916.817 1.378.39l4.228-3.9v1.43c0 .51.386.923.863.923s.864-.414.864-.924V61.86c0-.453-.307-.84-.726-.912zm35.966-47.022a.6.6 0 0 0-.247.264l-1.695 3.536a2.529 2.529 0 0 1-2.203 1.433 2.568 2.568 0 0 1-2.315-1.279l-1.981-3.411a.614.614 0 0 0-.267-.247l-3.573-1.706a2.552 2.552 0 0 1-1.457-2.198 2.506 2.506 0 0 1 1.272-2.29l3.421-1.945a.601.601 0 0 0 .247-.263l1.695-3.536A2.526 2.526 0 0 1 78.978.85a2.572 2.572 0 0 1 2.316 1.278l1.98 3.411a.613.613 0 0 0 .268.246l3.573 1.708a2.55 2.55 0 0 1 1.457 2.197 2.507 2.507 0 0 1-1.272 2.29l-3.421 1.944zm2.753-4.168a.599.599 0 0 0-.35-.527L82.71 7.523a2.565 2.565 0 0 1-1.116-1.028l-1.981-3.411a.594.594 0 0 0-.555-.306.594.594 0 0 0-.528.343l-1.694 3.536a2.504 2.504 0 0 1-1.028 1.1l-3.422 1.945a.588.588 0 0 0-.305.55.6.6 0 0 0 .35.526l3.572 1.706c.47.225.855.58 1.116 1.029l1.981 3.41a.604.604 0 0 0 .555.307.595.595 0 0 0 .528-.343l1.695-3.536a2.507 2.507 0 0 1 1.027-1.101l3.422-1.945a.588.588 0 0 0 .305-.548zM59.537 32.015l1.476-1.75.21-2.281a1.877 1.877 0 0 1 1.17-1.57 1.92 1.92 0 0 1 1.952.307L66.12 28.2l2.297.224a1.918 1.918 0 0 1 1.59 1.173 1.874 1.874 0 0 1-.298 1.935l-1.476 1.751-.21 2.28a1.875 1.875 0 0 1-1.17 1.57 1.917 1.917 0 0 1-1.952-.307l-1.774-1.478-2.297-.225a1.918 1.918 0 0 1-1.59-1.173 1.874 1.874 0 0 1 .298-1.935zm3.783 1.4c.387.038.749.19 1.047.438l1.714 1.428.204-2.203a1.87 1.87 0 0 1 .433-1.037l1.427-1.692-2.22-.217a1.917 1.917 0 0 1-1.047-.438l-1.714-1.428-.204 2.203a1.865 1.865 0 0 1-.433 1.037L61.1 33.198l2.22.217zm22.087-3.632a1.353 1.353 0 0 1-.894-.054 1.353 1.353 0 0 1-.68-.582c-1.708-3.076-2.003-6.368-.831-9.27 1.172-2.9 3.671-5.064 7.037-6.09.577-.176 1.282.108 1.574.636.293.527.062 1.097-.514 1.272-2.808.857-4.893 2.661-5.871 5.082-.978 2.42-.732 5.166.694 7.734.292.526.062 1.096-.515 1.272zm-7.437 2.281c.017.613-.437 1.156-1.014 1.212a.954.954 0 0 1-.455-.063c-.357-.145-.61-.503-.624-.944-.178-6.162-5.047-10.712-10.852-10.144-.577.057-1.06-.394-1.078-1.007-.017-.613.436-1.156 1.014-1.213 6.958-.68 12.794 4.774 13.008 12.159zm5.641.818a1.064 1.064 0 0 1 1.357.548.969.969 0 0 1-.528 1.305l-23.868 9.592a1.45 1.45 0 0 0-.814.81c-.15.371-.142.779.023 1.148a1.598 1.598 0 0 0 2.035.822l3.772-1.517.012-.005 9.754-3.92 8.019-3.222 12.14-4.88a.135.135 0 0 0 .011-.003l3.586-1.441a1.45 1.45 0 0 0 .814-.81c.15-.371.142-.778-.023-1.147a1.598 1.598 0 0 0-2.035-.822l-9.092 3.654a1.064 1.064 0 0 1-1.356-.548.97.97 0 0 1 .527-1.305l9.092-3.654c1.818-.73 3.947.13 4.748 1.918a3.394 3.394 0 0 1-1.846 4.567l-1.392.56c.245.377.382.817.385 1.274l.11 15.787v.004l.054 7.62.028 3.993.088 12.657c.007.96-.55 1.783-1.455 2.146a2.327 2.327 0 0 1-.23.08c-.051.015-.102.026-.152.037-.027.006-.055.015-.083.02-.47.09-.951.042-1.39-.136a2.56 2.56 0 0 1-.782-.499l-.003-.002v-.001l-8.51-7.833c-.419-.385-.446-1.02-.062-1.415.386-.397 1.036-.406 1.455-.021l8.517 7.84c.16.147.325.112.41.078a.342.342 0 0 0 .227-.334l-.063-8.984-18.627-7.526 6.052 5.62c.416.387.44 1.02.054 1.416-.387.395-1.038.401-1.454.014L64.924 49.473a2.44 2.44 0 0 1-.698-1.148l-1.581.635a3.685 3.685 0 0 1-2.755-.015 3.685 3.685 0 0 1-1.992-1.903 3.395 3.395 0 0 1 1.845-4.568l23.868-9.592zm13.33 12.331l-13.109-4.768-5.379 2.162.246.099c5.99 2.429 12.167 4.934 18.276 7.398l-.035-4.89zm-.066-9.447a.37.37 0 0 0-.173-.312.382.382 0 0 0-.355-.038L86.6 39.333l10.327 3.757-.051-7.324zm.114 16.49c-1.143-.46-2.287-.922-3.435-1.386-5.231-2.113-10.486-4.245-15.603-6.32l-2.158-.874-6.738 2.708c5.702 2.311 20.153 8.169 27.972 11.32l-.038-5.448zm.054 7.601c-7.629-3.073-22.92-9.271-28.78-11.647l-1.866-.756-.013.006-.022.014a.326.326 0 0 0-.076.066l-.016.021a.206.206 0 0 0-.024.038l-.007.012-.01.027-.005.009a.307.307 0 0 0-.009.031.375.375 0 0 0-.01.127.357.357 0 0 0 .12.238l8.047 7.474 22.704 9.173-.033-4.833z"/></g></svg>