<svg width="104" height="102" xmlns="http://www.w3.org/2000/svg"><g fill="#FFF"><path d="M85.31 13.092a.6.6 0 0 0-.248.264l-1.694 3.536a2.529 2.529 0 0 1-2.203 1.432 2.568 2.568 0 0 1-2.315-1.279l-1.981-3.41a.614.614 0 0 0-.267-.247l-3.573-1.707a2.552 2.552 0 0 1-1.458-2.197 2.506 2.506 0 0 1 1.273-2.29l3.421-1.945a.601.601 0 0 0 .246-.264l1.695-3.535A2.526 2.526 0 0 1 80.41.017a2.572 2.572 0 0 1 2.315 1.279l1.981 3.411a.613.613 0 0 0 .268.246l3.572 1.707a2.55 2.55 0 0 1 1.457 2.197 2.507 2.507 0 0 1-1.272 2.29l-3.42 1.945zm2.752-4.169a.599.599 0 0 0-.349-.526L84.14 6.69a2.565 2.565 0 0 1-1.115-1.028L81.044 2.25a.594.594 0 0 0-.555-.307.594.594 0 0 0-.528.344l-1.695 3.536a2.504 2.504 0 0 1-1.027 1.1L73.817 8.87a.588.588 0 0 0-.305.549c.004.11.047.382.35.527l3.572 1.706c.47.225.855.58 1.115 1.028l1.982 3.411c.167.288.443.31.555.307a.595.595 0 0 0 .527-.343l1.695-3.537a2.507 2.507 0 0 1 1.028-1.1l3.422-1.945a.588.588 0 0 0 .304-.549zM60.967 31.181l1.477-1.75.21-2.28a1.877 1.877 0 0 1 1.17-1.57 1.92 1.92 0 0 1 1.952.307l1.773 1.478 2.298.225a1.918 1.918 0 0 1 1.589 1.172 1.874 1.874 0 0 1-.297 1.936l-1.476 1.751-.211 2.28a1.875 1.875 0 0 1-1.17 1.57 1.917 1.917 0 0 1-1.952-.308l-1.773-1.478-2.298-.224a1.918 1.918 0 0 1-1.589-1.173 1.874 1.874 0 0 1 .297-1.936zm3.784 1.4c.387.039.748.19 1.047.439l1.713 1.428.204-2.203c.035-.384.185-.743.434-1.037l1.427-1.692-2.22-.217a1.917 1.917 0 0 1-1.048-.438l-1.713-1.429-.204 2.203a1.865 1.865 0 0 1-.434 1.038l-1.427 1.691 2.22.218zm22.087-3.631a1.353 1.353 0 0 1-.894-.054 1.353 1.353 0 0 1-.68-.582c-1.709-3.076-2.004-6.369-.832-9.27 1.173-2.901 3.672-5.064 7.038-6.09.577-.177 1.281.108 1.574.635.292.527.062 1.097-.514 1.273-2.809.856-4.894 2.66-5.872 5.082-.977 2.42-.731 5.166.694 7.733.293.527.062 1.097-.514 1.273zM79.4 31.23c.017.614-.437 1.157-1.014 1.213a.954.954 0 0 1-.454-.064c-.357-.144-.611-.502-.624-.943-.179-6.162-5.047-10.712-10.852-10.144-.577.057-1.06-.394-1.078-1.008-.018-.612.436-1.155 1.013-1.212C73.35 18.39 79.185 23.845 79.4 31.23zm5.642.819a1.064 1.064 0 0 1 1.356.548.969.969 0 0 1-.527 1.305l-23.869 9.592c-.374.15-.663.438-.813.81-.15.371-.142.779.023 1.147a1.598 1.598 0 0 0 2.034.822l3.773-1.516.012-.005 9.753-3.92 8.02-3.223 12.14-4.878a.135.135 0 0 0 .011-.004l3.586-1.442c.374-.15.663-.438.813-.809.15-.371.142-.779-.023-1.148a1.598 1.598 0 0 0-2.034-.822l-9.092 3.654a1.064 1.064 0 0 1-1.357-.548.97.97 0 0 1 .528-1.305l9.092-3.653c1.817-.731 3.947.13 4.747 1.918a3.394 3.394 0 0 1-1.845 4.567l-1.393.56c.246.377.383.817.386 1.274l.11 15.787v.004l.053 7.619.028 3.994.088 12.656c.007.961-.55 1.784-1.455 2.147a1.98 1.98 0 0 1-.382.117l-.082.02c-.47.09-.951.042-1.391-.136a2.56 2.56 0 0 1-.781-.499l-.003-.003h-.001l-8.51-7.834c-.418-.384-.446-1.018-.061-1.415.385-.396 1.036-.406 1.454-.02l8.517 7.839c.16.148.326.112.411.078a.342.342 0 0 0 .227-.334l-.063-8.983-18.627-7.526 6.051 5.62c.417.387.441 1.02.054 1.415-.386.396-1.037.402-1.454.015L66.355 48.64a2.44 2.44 0 0 1-.698-1.149l-1.582.636a3.685 3.685 0 0 1-2.755-.015 3.685 3.685 0 0 1-1.992-1.903 3.395 3.395 0 0 1 1.845-4.568l23.869-9.592zM98.37 44.38l-13.108-4.768-5.379 2.161.246.1c5.99 2.428 12.167 4.933 18.275 7.398l-.034-4.89zm-.066-9.447a.37.37 0 0 0-.173-.312.382.382 0 0 0-.354-.039L88.03 38.5l10.326 3.757-.05-7.324zm.115 16.49a13444.182 13444.182 0 0 1-19.038-7.706l-2.158-.875-6.739 2.708c5.703 2.312 20.153 8.17 27.973 11.322l-.038-5.449zm.053 7.6c-7.628-3.072-22.919-9.27-28.78-11.646l-1.866-.756-.012.006-.022.013a.326.326 0 0 0-.076.067l-.017.02a.206.206 0 0 0-.023.038l-.007.013-.011.026-.004.01a.307.307 0 0 0-.01.031.375.375 0 0 0-.01.127.357.357 0 0 0 .12.237l8.048 7.475 22.704 9.173-.034-4.833zM9.771 41.85l4.691-1.068 1.696 8.118c-.551-.113-1.163-.1-1.81.047-.949.217-1.728.659-2.252 1.279-.621.735-.848 1.695-.637 2.701.334 1.598 1.595 2.564 3.212 2.564a4.5 4.5 0 0 0 .997-.116c.95-.217 1.728-.679 2.251-1.339.596-.75.81-1.715.6-2.716l-3.046-14.581c-.189-.905-1.048-1.481-1.915-1.283l-10.01 2.28c-.42.094-.779.355-1.01.733a1.73 1.73 0 0 0-.219 1.266l2.456 11.757c-.551-.112-1.163-.1-1.809.048-.95.216-1.728.658-2.252 1.278-.622.735-.848 1.695-.637 2.701.334 1.599 1.595 2.564 3.211 2.564.32 0 .654-.038.998-.116.95-.216 1.728-.679 2.251-1.338.596-.751.809-1.716.6-2.717L4.85 42.97l1.052-.24c.49-.111.8-.616.693-1.127-.107-.51-.59-.834-1.08-.723l-1.052.24-.33-1.582 9.611-2.188.33 1.581L9.385 40c-.49.112-.8.616-.693 1.127.107.51.59.834 1.08.723zM3.9 56.117c-.412.094-1.78.3-2.051-1-.24-1.15.84-1.576 1.505-1.728.223-.05.463-.086.697-.086.595 0 1.152.229 1.315 1.012.272 1.301-1.053 1.709-1.466 1.802zm11.383-2.592c-.413.094-1.78.3-2.051-1.001-.09-.426-.018-.759.225-1.046.263-.311.717-.553 1.28-.68.223-.052.463-.087.697-.087.594 0 1.15.229 1.315 1.012.271 1.3-1.054 1.708-1.466 1.802zm51.808 30.802a1.694 1.694 0 0 0-.936-.91L56.103 79.45a1.688 1.688 0 0 0-2.192.98l-4.394 11.486c-.42-.421-.965-.771-1.614-1.027-2.133-.842-4.043-.163-4.751 1.69-.716 1.87.242 3.75 2.33 4.575.572.225 1.14.34 1.68.34.36 0 .71-.051 1.04-.153.941-.289 1.665-.986 2.04-1.964l4.088-10.689 4.803 1.896a.95.95 0 0 0 1.235-.553.974.974 0 0 0-.544-1.255l-4.803-1.895.591-1.545 9.652 3.809-.592 1.545-1.053-.416a.95.95 0 0 0-1.235.553.974.974 0 0 0 .544 1.254l1.054.416-3.034 7.93c-.421-.422-.965-.772-1.614-1.027-.954-.377-1.883-.46-2.688-.24-.954.26-1.688.946-2.064 1.929-.374.978-.303 1.99.199 2.848.44.754 1.178 1.351 2.131 1.727a4.555 4.555 0 0 0 1.67.336c1.4 0 2.571-.757 3.09-2.113l5.448-14.243a1.733 1.733 0 0 0-.029-1.317zM47.65 95.485c-.408.126-.932.077-1.477-.138-.414-.164-1.728-.796-1.242-2.067.24-.628.718-.819 1.208-.819.386 0 .78.118 1.074.234.557.22.982.534 1.196.883.199.325.216.673.054 1.096-.163.428-.43.694-.813.811zm9.955 4.372c-.545-.215-.965-.538-1.182-.91-.205-.35-.225-.728-.061-1.156.16-.416.407-.658.78-.76.132-.035.276-.053.43-.053.323 0 .69.077 1.072.228.557.22.982.533 1.196.883.199.325.216.673.054 1.095-.486 1.271-1.875.837-2.29.673zm-32.2-20.967c.298.296.69.443 1.08.443.392 0 .784-.147 1.082-.442l2.444-2.42 2.445-2.422a1.506 1.506 0 0 0 0-2.141l-2.069-2.048a1.543 1.543 0 0 0-2.163 0l-4.888 4.84a1.506 1.506 0 0 0 0 2.142l2.069 2.049zm3.901-7.308l1.41 1.396-1.41 1.397-1.41-1.397 1.41-1.396zm-2.82 2.793l1.41 1.397-1.41 1.396-1.41-1.396 1.41-1.397z"/><path d="M42.651 73.382c.447.077.88.116 1.302.116 3.684 0 6.5-2.788 9.459-5.718 4.494-4.452 8.664-10.541.941-18.189-7.722-7.647-13.872-3.519-18.367.933-3.296 3.264-6.412 6.353-5.657 10.65l-1.087 3.492-12.648 12.526a.983.983 0 0 0 0 1.398 1.001 1.001 0 0 0 1.413 0l12.17-12.052 7.064 6.995-16.703 16.539a4.985 4.985 0 0 1-3.531 1.45 4.986 4.986 0 0 1-3.531-1.45 4.888 4.888 0 0 1-1.464-3.497 4.89 4.89 0 0 1 1.464-3.498l1.518-1.503a.983.983 0 0 0 0-1.4 1.006 1.006 0 0 0-1.413 0l-1.518 1.504a6.845 6.845 0 0 0-2.05 4.897c0 1.85.729 3.589 2.05 4.896a6.98 6.98 0 0 0 4.945 2.029 6.98 6.98 0 0 0 4.944-2.03l17.23-17.06 3.47-1.028zM37.4 51.922c2.753-2.726 5.061-4.163 7.264-4.523 2.687-.44 5.394.735 8.277 3.591 2.884 2.855 4.07 5.537 3.627 8.197-.364 2.182-1.815 4.467-4.568 7.193-3.015 2.986-5.63 5.574-8.919 5.067L32.283 60.754c-.512-3.256 2.102-5.846 5.116-8.831zm-5.577 11.174l8.883 8.797-1.766.523-7.658-7.584.54-1.736z"/><path d="M41.277 54.04a.72.72 0 0 0-1.012 0 .703.703 0 0 0 0 1.002.72.72 0 0 0 1.012 0 .703.703 0 0 0 0-1.001zm2.861 2.834a.72.72 0 0 0-1.012 0 .703.703 0 0 0 0 1.002.72.72 0 0 0 1.012 0 .703.703 0 0 0 0-1.002zm2.861 2.834a.72.72 0 0 0-1.012 0 .703.703 0 0 0 0 1.001.72.72 0 0 0 1.012 0 .703.703 0 0 0 0-1.001zm4.291-7.084a.72.72 0 0 0-1.011 0 .704.704 0 0 0 0 1.002.721.721 0 0 0 1.012 0 .704.704 0 0 0 0-1.002zm-1.43-1.416a.72.72 0 0 0-1.012 0 .704.704 0 0 0 0 1.001.72.72 0 0 0 1.012 0 .704.704 0 0 0 0-1.001zm-10.014 12.75a.72.72 0 0 0-1.012 0 .704.704 0 0 0 0 1.001.72.72 0 0 0 1.012 0 .704.704 0 0 0 0-1.001zm-2.861-1.418a.72.72 0 0 0-1.012 0 .703.703 0 0 0 0 1.002.72.72 0 0 0 1.012 0 .704.704 0 0 0 0-1.001zm8.584-12.75a.72.72 0 0 0-1.012 0 .703.703 0 0 0 0 1.002.72.72 0 0 0 1.012 0 .704.704 0 0 0 0-1.001z"/><path d="M49.86 52.624a.72.72 0 0 0-1.012 0 .703.703 0 0 0 0 1.002.72.72 0 0 0 1.012 0 .703.703 0 0 0 0-1.002zm1.43 4.25a.72.72 0 0 0-1.011 0 .704.704 0 0 0 0 1.002.72.72 0 0 0 1.012 0 .704.704 0 0 0 0-1.002zM35.554 58.29a.72.72 0 0 0-1.011 0 .703.703 0 0 0 0 1.002.72.72 0 0 0 1.011 0 .703.703 0 0 0 0-1.001zm4.292 4.25a.72.72 0 0 0-1.011 0 .703.703 0 0 0 0 1.002.72.72 0 0 0 1.011 0 .703.703 0 0 0 0-1.001zm4.292 1.418a.72.72 0 0 0-1.012 0 .703.703 0 0 0 0 1.001.72.72 0 0 0 1.012 0 .703.703 0 0 0 0-1.001zm2.861-7.084a.72.72 0 0 0-1.012 0 .703.703 0 0 0 0 1.002.72.72 0 0 0 1.012 0 .703.703 0 0 0 0-1.002zm4.291 2.834a.72.72 0 0 0-1.011 0 .703.703 0 0 0 0 1.001.72.72 0 0 0 1.011 0 .703.703 0 0 0 0-1.001zm-10.013-8.501a.72.72 0 0 0-1.012 0 .704.704 0 0 0 0 1.002.72.72 0 0 0 1.012 0 .704.704 0 0 0 0-1.002zm4.291 1.417a.72.72 0 0 0-1.011 0 .703.703 0 0 0 0 1.002.72.72 0 0 0 1.011 0 .703.703 0 0 0 0-1.002zm-1.43 7.084a.72.72 0 0 0-1.012 0 .704.704 0 0 0 0 1.001.72.72 0 0 0 1.012 0 .704.704 0 0 0 0-1.001zm2.861 4.25a.72.72 0 0 0-1.012 0 .703.703 0 0 0 0 1.001.72.72 0 0 0 1.012 0 .703.703 0 0 0 0-1.001zM36.985 54.04a.72.72 0 0 0-1.012 0 .703.703 0 0 0 0 1.002.72.72 0 0 0 1.012 0 .703.703 0 0 0 0-1.001zm4.292 4.25a.72.72 0 0 0-1.012 0 .703.703 0 0 0 0 1.002.72.72 0 0 0 1.012 0 .703.703 0 0 0 0-1.001z"/></g></svg>