<svg width="103" height="102" xmlns="http://www.w3.org/2000/svg"><g fill="#FFF"><path d="M51.981 28.333h-8.115c-.524 0-.95.317-.95.709 0 .39.426.708.95.708h8.115c.525 0 .95-.317.95-.708 0-.392-.425-.709-.95-.709zm50.069 0h-8.115c-.524 0-.949.317-.949.709 0 .39.425.708.95.708h8.115c.524 0 .949-.317.949-.708 0-.392-.425-.709-.95-.709zM72.243 0c-.395 0-.715.42-.715.94v8.037c0 .519.32.94.715.94.395 0 .715-.421.715-.94V.94c0-.52-.32-.94-.715-.94zm0 49.583c-.395 0-.715.421-.715.94v8.037c0 .52.32.94.715.94.395 0 .715-.42.715-.94v-8.037c0-.519-.32-.94-.715-.94zM58.444 14.381l-4.3-4.258a.716.716 0 0 0-1.005 0 .7.7 0 0 0 0 .996l4.3 4.258a.713.713 0 0 0 1.005 0 .7.7 0 0 0 0-.996zm34.334 34l-4.3-4.258a.716.716 0 0 0-1.006 0 .7.7 0 0 0 0 .996l4.3 4.258a.713.713 0 0 0 1.006 0 .7.7 0 0 0 0-.996zm0-38.258a.716.716 0 0 0-1.006 0l-4.3 4.258a.7.7 0 0 0 0 .996.713.713 0 0 0 1.006 0l4.3-4.258a.7.7 0 0 0 0-.996zm-34.334 34a.716.716 0 0 0-1.005 0l-4.3 4.258a.7.7 0 0 0 0 .996.713.713 0 0 0 1.006 0l4.3-4.258a.7.7 0 0 0 0-.996zm19.953-8.427c-.362-.389-.933-.37-1.275.043-.97 1.173-2.527 1.873-4.164 1.873-1.636 0-3.193-.7-4.163-1.873-.342-.412-.913-.432-1.275-.043a1.13 1.13 0 0 0-.038 1.452c1.324 1.6 3.32 2.519 5.476 2.519 2.157 0 4.153-.918 5.477-2.519a1.13 1.13 0 0 0-.038-1.452z"/><path d="M86.204 17.997a.889.889 0 0 0-1.242-.136.869.869 0 0 0-.137 1.229c1.1 1.36 1.94 2.848 2.524 4.403h-2.89l-.006-.007a2.784 2.784 0 0 0-2.077-.928h-5.827c-.806 0-1.557.34-2.083.935H70.02a2.763 2.763 0 0 0-2.084-.935H62.11c-.794 0-1.551.339-2.077.928l-.006.007h-2.892a15.916 15.916 0 0 1 3.718-5.73c5.812-5.756 15.029-6.264 21.44-1.18a.89.89 0 0 0 1.24-.137.869.869 0 0 0-.137-1.23c-7.114-5.64-17.342-5.078-23.792 1.31-6.45 6.387-7.018 16.516-1.321 23.56a.885.885 0 0 0 1.241.136.869.869 0 0 0 .137-1.229 15.783 15.783 0 0 1-3.069-13.75h2.749c-.003.132.003.266.02.4l.368 2.92c.232 1.837 1.817 3.223 3.686 3.223h2.841a3.703 3.703 0 0 0 3.604-2.787l.765-3.03c.061-.242.088-.486.083-.727h3.07c-.005.241.022.485.082.726L74.626 29a3.703 3.703 0 0 0 3.604 2.787h2.84c1.87 0 3.455-1.386 3.686-3.223l.369-2.92c.017-.134.023-.267.02-.4h2.748a15.823 15.823 0 0 1-4.26 15.078c-5.812 5.756-15.03 6.263-21.44 1.18a.889.889 0 0 0-1.24.136.869.869 0 0 0 .137 1.23 17.907 17.907 0 0 0 11.152 3.883c4.591 0 9.164-1.75 12.64-5.192 6.45-6.387 7.018-16.516 1.322-23.561zm-17.292 7.547l-.765 3.03a1.942 1.942 0 0 1-1.89 1.463h-2.841c-.98 0-1.812-.727-1.934-1.69l-.368-2.921a.976.976 0 0 1 .243-.782.996.996 0 0 1 .754-.336h5.826c.312 0 .6.139.792.382a.981.981 0 0 1 .183.854zm14.46-.118l-.368 2.92a1.945 1.945 0 0 1-1.933 1.69H78.23a1.942 1.942 0 0 1-1.89-1.461l-.766-3.031a.981.981 0 0 1 .183-.854c.192-.243.48-.382.792-.382h5.827a.998.998 0 0 1 .997 1.118zM64.345 8.929l-.644-2.821c-.083-.365-.313-.538-.514-.387-.2.151-.296.569-.213.933l.644 2.822c.063.275.21.44.364.44.05 0 .1-.017.15-.054.2-.15.296-.569.213-.933zm18.597 42.5l-.643-2.821c-.084-.365-.314-.538-.514-.387-.201.151-.296.569-.213.933l.643 2.822c.063.275.21.44.364.44.05 0 .101-.017.15-.054.201-.15.296-.569.213-.933zm12.85-31.355c-.152-.199-.574-.293-.942-.21L92 20.5c-.368.083-.543.31-.39.51.115.15.383.24.666.24.092 0 .186-.01.276-.03l2.849-.637c.368-.082.543-.31.39-.51zM52.875 38.49c-.152-.198-.574-.293-.942-.21l-2.849.637c-.368.082-.542.31-.39.51.115.15.384.24.667.24.092 0 .185-.01.275-.03l2.85-.637c.367-.083.542-.31.39-.51zM82.73 5.721c-.201-.15-.432.022-.515.387l-.643 2.82c-.083.365.012.783.213.934.049.037.1.055.15.055.154 0 .3-.166.364-.441l.643-2.822c.083-.364-.012-.782-.213-.933zm-18.598 42.5c-.2-.15-.43.022-.514.387l-.644 2.82c-.083.365.013.783.213.934.05.037.1.055.15.055.155 0 .302-.166.364-.441l.644-2.822c.083-.364-.012-.782-.213-.933zm31.27-9.304l-2.849-.637c-.368-.083-.79.012-.942.21-.153.2.022.427.39.51l2.849.637c.09.02.184.03.276.03.283 0 .551-.09.666-.24.153-.2-.022-.428-.39-.51zM52.485 20.5l-2.849-.637c-.368-.082-.79.012-.942.21-.153.2.022.428.39.51l2.85.637c.09.02.183.03.275.03.283 0 .551-.09.666-.24.153-.2-.022-.427-.39-.51zm-24.52 40.094a31.101 31.101 0 0 0-5.502-1.089.903.903 0 0 0-1 .788.893.893 0 0 0 .806.98c3.371.355 5.032 1.06 5.435 1.06.39 0 .75-.248.868-.633a.886.886 0 0 0-.607-1.106zM19.084 59.5a33.11 33.11 0 0 0-8.42 1.216c-.489.136-.76.601-.607 1.037.124.354.49.58.885.58.501 0 3.338-1.104 8.173-1.178.513-.007.921-.384.913-.842-.009-.457-.434-.816-.944-.813zm8.886 6.841c-4-1.103-10.254-1.99-17.326.046-.474.137-.737.6-.589 1.035.149.433.653.677 1.129.54 6.636-1.91 12.509-1.077 16.268-.04.476.13.978-.117 1.12-.553.144-.436-.126-.896-.602-1.028zm0 7.084c-4-1.103-10.253-1.99-17.326.046-.474.136-.737.6-.589 1.034.149.433.653.677 1.129.54 6.636-1.91 12.51-1.076 16.268-.04.476.131.978-.116 1.12-.553.144-.436-.126-.896-.602-1.027zm0 5.666c-4-1.103-10.254-1.99-17.326.046-.474.137-.737.6-.589 1.035.121.352.476.578.859.578.54 0 7.349-2.612 16.538-.078.476.13.978-.117 1.12-.553.144-.436-.126-.896-.602-1.028zm0 7.084c-4-1.103-10.253-1.99-17.326.046-.474.136-.737.6-.589 1.034.149.433.653.677 1.129.54 6.636-1.91 12.51-1.076 16.268-.04.476.131.978-.116 1.12-.553.144-.436-.126-.896-.602-1.027zm23.015-6.211a17.846 17.846 0 0 0-1.454-.6c-.39-.142-.781.234-.873.839-.091.605.152 1.21.542 1.352 1.265.457 1.343.612 1.576.612.834 0 1.005-1.832.209-2.203zM45 78.076a29.558 29.558 0 0 0-11.487 1.058c-.459.137-.714.601-.57 1.037.117.353.46.579.83.579a.913.913 0 0 0 .262-.038 27.733 27.733 0 0 1 10.778-.993c.479.05.908-.28.96-.733.051-.454-.295-.861-.773-.91zm5.859 8.099c-4-1.103-10.254-1.99-17.326.046-.474.136-.738.6-.589 1.034.149.434.653.677 1.129.54 6.636-1.91 12.509-1.076 16.267-.04.476.131.978-.116 1.122-.553.143-.436-.127-.896-.603-1.027zm.001-25.458c-4.001-1.143-10.255-2.062-17.327.048a.86.86 0 0 0-.63.816v12.647c0 .272.136.528.367.69a.932.932 0 0 0 .802.126c6.637-1.98 12.51-1.116 16.269-.042a.938.938 0 0 0 .796-.132.842.842 0 0 0 .363-.686V61.536c0-.377-.26-.71-.64-.819zm-1.16 12.34c-3.753-.919-9.049-1.488-14.997.032V62.216c6.014-1.645 11.356-.988 14.997-.036v10.877z"/><path d="M59.425 56.568h-4.027c-.039-.2.218-1.217-.71-1.625-8.177-3.61-17.392-3.082-23.931-.1-6.494-2.962-15.7-3.533-23.93.1-.927.406-.674 1.434-.711 1.625H2.089C.938 56.568 0 57.489 0 58.62v36.933c0 1.131.938 2.051 2.089 2.051h27.763v3.506c0 .743.878 1.16 1.47.694l1.537-1.207C34.222 101.64 34.351 102 34.9 102a.897.897 0 0 0 .906-.89v-3.505h12.218c.5 0 .905-.397.905-.889a.898.898 0 0 0-.905-.889H35.805v-3.482c4.183-1.018 10.768-1.64 17.91 1.438.795.343 1.683-.233 1.683-1.08V58.345h4.027c.153 0 .279.123.279.274v36.933a.277.277 0 0 1-.279.273h-7.782c-.5 0-.905.398-.905.89 0 .491.405.888.905.888h7.782c1.151 0 2.089-.92 2.089-2.05V58.62c0-1.131-.938-2.052-2.089-2.052zM29.852 95.826H2.089a.276.276 0 0 1-.279-.273V58.62c0-.15.126-.274.279-.274h4.027v34.355c0 .847.885 1.424 1.683 1.081 7.457-3.214 15.834-2.806 22.053-.07v2.114zm0-4.048c-6.474-2.565-14.544-2.892-21.926.023V56.41c7.406-3.148 15.737-2.746 21.926-.015v35.384zm4.143 7.435l-.545-.446a.92.92 0 0 0-1.145-.012l-.643.506v-5.549a23.264 23.264 0 0 1 2.333-.864v6.365zM53.588 91.8c-7.315-2.889-15.358-2.627-21.926-.023V56.394c6.142-2.707 14.456-3.16 21.926.015v35.392z"/><path d="M47.913 62.947l-3.468-.602c-.471-.081-.914.26-.99.764-.077.504.243.979.714 1.06l1.85.321-3.508 3.237-.577-1.74c-.218-.655-1.015-.828-1.454-.31l-3.062 3.612a.97.97 0 0 0 .06 1.305c.353.343.9.314 1.22-.064l2.092-2.468.516 1.555c.203.609.916.817 1.378.39l4.228-3.9v1.43c0 .51.386.923.863.923s.864-.414.864-.924V63.86c0-.453-.307-.84-.726-.912z"/></g></svg>